<svg width="0" height="0" class="svg">
  <symbol xmlns="http://www.w3.org/2000/svg" xmlns:xlink="http://www.w3.org/1999/xlink" viewBox="0 0 20 20" id="ic_journey">
    <path style="fill:#000000; stroke:none;" d="M0 0L0 5L1 5L5 1L0 0z"/>
    <path style="fill:#ffffff; stroke:none;" d="M5.09414 0.858025C-6.69364 6.0855 2.56723 24.6137 14.9059 19.142C26.6936 13.9145 17.4328 -4.61374 5.09414 0.858025z"/>
    <path style="fill:#000000; stroke:none;" d="M15 0L15 1L19 5L20 5L20 0L15 0M4 15L15 4C7.29706 -1.25518 -1.25519 7.29706 4 15M16 5L5 16C12.7029 21.2552 21.2552 12.7029 16 5M0 15L0 20L5 20L5 19L0 15M19 15L15 19L15 20L20 20L19 15z"/>
    </symbol>
  <symbol xmlns="http://www.w3.org/2000/svg" xmlns:xlink="http://www.w3.org/1999/xlink" viewBox="0 0 28 20" id="ic_forum">
    <path style="fill:#000000; stroke:none;" d="M0 0L0 10L1 10L2 0L0 0z"/>
    <path style="fill:#ffffff; stroke:none;" d="M2 0C1.9802 5.78617 -2.28329 13.9412 5 16L5 20C9.27098 20 25.4715 22.3641 27.2924 17.5664C28.5241 14.3212 26.0107 7.71741 26 4L23 4L23 0L2 0z"/>
    <path style="fill:#000000; stroke:none;" d="M23 0L23 4L26 4L27 15L28 15L28 0L23 0M4 2L4 13L20 13L20 2L4 2z"/>
    <path style="fill:#ffffff; stroke:none;" d="M5 3L5 12C8.46552 12 13.4862 13.0885 14 9L19 9L19 3L5 3z"/>
    <path style="fill:#000000; stroke:none;" d="M23 7C22.8804 17.1176 16.3055 16 8 16L8 18L24 18L23 7M0 14L0 20L5 20L5 16L0 14M26.6667 19.3333L27.3333 19.6667L26.6667 19.3333z"/>
    </symbol>
  <symbol xmlns="http://www.w3.org/2000/svg" xmlns:xlink="http://www.w3.org/1999/xlink" viewBox="0 0 19 19" id="ic_caledar">
    <g transform="translate(0.000000,19.000000) scale(0.100000,-0.100000)"
fill="#000000" stroke="none">
</g></symbol>
</svg>